<svg width="60" height="80" viewBox="0 0 60 80" fill="none" xmlns="http://www.w3.org/2000/svg">
<path d="M15.0065 0H23.5998V3.59333H18.5998V7.18667H23.5998V10.78H15.0065V0Z" fill="#FBFBFB"/>
<path d="M25.3165 0H33.9132V3.12667H28.9132V3.75H33.9132V10.9367H25.3165V7.65667H30.3165V7.03H25.3165V0Z" fill="#FBFBFB"/>
<path d="M35.6331 0H44.2232V3.12667H39.2232V3.75H44.2232V10.9367H35.6331V7.65667H40.6331V7.03H35.6331V0Z" fill="#FBFBFB"/>
<path fill-rule="evenodd" clip-rule="evenodd" d="M29.97 79.9999L6.82333 73.5733L0 15.7233H60L53.18 73.5666L29.97 79.9999ZM13.49 41.9099L14.1267 49.0033H38.7167L37.8933 58.2033L29.98 60.3433H29.9733L22.0733 58.2099L21.5667 52.5533H14.4433L15.4367 63.6933L29.97 67.7266L44.5267 63.6933L46.3 43.8133L46.4733 41.9099L47.7533 27.5466H12.2133L12.86 34.6433H39.98L39.3333 41.9099H13.49V41.9099Z" fill="#FBFBFB"/>
</svg>
