<svg width="60" height="80" viewBox="0 0 60 80" fill="none" xmlns="http://www.w3.org/2000/svg">
<path d="M6.93338 0H10.54V3.56333H13.84V0H17.4467V10.7867H13.84V7.17667H10.54V10.7867H6.93671V0H6.93338Z" fill="#FBFBFB"/>
<path d="M22.1866 3.57667H19.0133V0H28.9699V3.57667H25.7933V10.7867H22.1866V3.57667Z" fill="#FBFBFB"/>
<path d="M30.5499 0H34.3099L36.6233 3.79L38.9333 0H42.6933V10.7867H39.1033V5.44L36.6233 9.27667H36.5599L34.0766 5.44333V10.7867H30.5499V0V0Z" fill="#FBFBFB"/>
<path d="M44.4867 0H48.0967V7.22333H53.1634V10.79H44.4867V0V0Z" fill="#FBFBFB"/>
<path fill-rule="evenodd" clip-rule="evenodd" d="M6.82 73.5734L0 15.7234H60L53.1767 73.5667L29.9667 80.0001L6.82 73.5734ZM20.61 41.9067L19.9633 34.6401H47.1133L47.7467 27.5467H12.2133L14.1267 49.0034H38.7167L37.8933 58.2034L29.98 60.3434H29.9733L22.0733 58.2101L21.5667 52.5534H14.44L15.4333 63.6934L29.9667 67.7267L44.5233 63.6934L46.2967 43.8134L46.47 41.9101H20.61V41.9067Z" fill="#FBFBFB"/>
</svg>
