<svg width="70" height="38" viewBox="0 0 70 38" fill="none" xmlns="http://www.w3.org/2000/svg">
<path d="M35 0C15.3738 0 0 8.32708 0 18.9583C0 29.5896 15.3738 37.9167 35 37.9167C54.6263 37.9167 70 29.5896 70 18.9583C70 8.32708 54.6263 0 35 0ZM31.3658 5.83333H35.1867L33.9733 11.6667H37.3858C39.55 11.6667 41.0025 11.97 41.8308 12.7254C42.6388 13.4721 42.8838 14.6971 42.56 16.3654L41.0433 23.3333H37.1583L38.5554 16.8904C38.7246 16.0067 38.6575 15.3913 38.36 15.0675C38.0654 14.7438 37.415 14.5833 36.4408 14.5833H33.3813L31.535 23.3333H27.7083L31.3658 5.83333V5.83333ZM14.5833 11.6667H22.3592C26.0663 11.6667 28.3121 14.1517 27.4342 17.8588C26.4133 22.1667 23.6833 23.3333 18.655 23.3333H16.2517L15.4904 27.7083H11.6258L14.5833 11.6667ZM45.2083 11.6667H52.9842C56.6913 11.6667 58.9371 14.1517 58.0592 17.8588C57.0383 22.1667 54.3054 23.3333 49.28 23.3333H46.8767L46.1154 27.7083H42.2508L45.2083 11.6667ZM17.8938 14.5833L16.7942 20.4167H19.2879C21.4463 20.4167 23.4529 20.1717 23.7883 16.9517C23.9138 15.7063 23.3946 14.5833 20.9008 14.5833H17.8938ZM48.5188 14.5833L47.4192 20.4167H49.9129C52.0713 20.4167 54.0779 20.1717 54.4133 16.9517C54.5388 15.7063 54.0225 14.5833 51.5258 14.5833H48.5188V14.5833Z" fill="#FBFBFB"/>
</svg>
