<svg width="60" height="54" viewBox="0 0 60 54" fill="none" xmlns="http://www.w3.org/2000/svg">
<path d="M60 26.7225C60 22.7475 55.0225 18.98 47.39 16.645C49.1525 8.8675 48.37 2.6775 44.92 0.695C44.084 0.226801 43.1379 -0.00886972 42.18 0.0125V2.7375C42.7425 2.7375 43.195 2.85 43.575 3.0575C45.2375 4.0125 45.96 7.6425 45.3975 12.315C45.2625 13.465 45.0425 14.675 44.7725 15.91C42.2166 15.2941 39.6225 14.8489 37.0075 14.5775C35.4496 12.4282 33.75 10.3853 31.92 8.4625C35.9075 4.7575 39.65 2.7275 42.195 2.7275V0C38.83 0 34.4275 2.3975 29.975 6.555C25.525 2.425 21.12 0.05 17.7575 0.05V2.775C20.29 2.775 24.045 4.795 28.0325 8.475C26.32 10.275 24.6075 12.315 22.98 14.5775C20.3596 14.8459 17.7609 15.2953 15.2025 15.9225C14.9321 14.752 14.7194 13.5689 14.565 12.3775C13.99 7.7025 14.7 4.0725 16.3525 3.1075C16.7175 2.8875 17.195 2.7875 17.7575 2.7875V0.0624999C16.7325 0.0624999 15.8 0.2825 14.995 0.745C11.5575 2.7275 10.7875 8.9025 12.56 16.6575C4.9525 19.0075 0 22.76 0 26.7225C0 30.6975 4.9775 34.465 12.61 36.7975C10.8475 44.5775 11.63 50.7675 15.08 52.7475C15.875 53.2125 16.805 53.4325 17.83 53.4325C21.195 53.4325 25.5975 51.035 30.05 46.8775C34.5 51.01 38.9025 53.3825 42.2675 53.3825C43.2328 53.4029 44.1861 53.1665 45.03 52.6975C48.4675 50.7175 49.2375 44.5425 47.465 36.7875C55.0475 34.4525 60 30.685 60 26.7225ZM44.075 18.565C43.6 20.1996 43.0494 21.8114 42.425 23.395C41.4029 21.4069 40.2806 19.4719 39.0625 17.5975C40.8 17.855 42.475 18.1725 44.0775 18.565H44.075ZM38.475 31.59C37.5593 33.1887 36.5759 34.7476 35.5275 36.2625C31.8581 36.5859 28.1676 36.5901 24.4975 36.275C22.3924 33.268 20.5513 30.0844 18.995 26.76C20.549 23.4278 22.3822 20.233 24.475 17.21C28.1435 16.8859 31.8332 16.8809 35.5025 17.195C36.5175 18.65 37.51 20.205 38.4625 21.845C39.3925 23.445 40.2375 25.07 41.0075 26.71C40.229 28.3699 39.3841 29.9979 38.475 31.59V31.59ZM42.425 30C43.085 31.6375 43.65 33.2775 44.1125 34.8675C42.5125 35.26 40.8225 35.59 39.075 35.845C40.2881 33.9535 41.4062 32.0028 42.425 30V30ZM30.025 43.05C28.8875 41.875 27.75 40.5675 26.625 39.135C27.725 39.185 28.85 39.2225 29.9875 39.2225C31.1375 39.2225 32.275 39.1975 33.3875 39.135C32.2875 40.5675 31.15 41.875 30.025 43.05ZM20.925 35.845C19.2394 35.6008 17.5659 35.2787 15.91 34.88C16.3625 33.3025 16.925 31.675 17.56 30.05C18.0625 31.025 18.59 32.005 19.165 32.985C19.74 33.9625 20.325 34.9175 20.925 35.845ZM29.9625 10.395C31.1 11.57 32.2375 12.8775 33.3625 14.31C32.2625 14.26 31.1375 14.2225 30 14.2225C28.85 14.2225 27.7125 14.2475 26.6 14.31C27.7 12.8775 28.8375 11.57 29.9625 10.395ZM20.9125 17.6C19.6997 19.4873 18.5816 21.4339 17.5625 23.4325C16.9205 21.8386 16.3574 20.2142 15.875 18.565C17.475 18.185 19.165 17.855 20.9125 17.6ZM9.845 32.91C5.515 31.065 2.715 28.6425 2.715 26.7225C2.715 24.8025 5.515 22.3675 9.845 20.535C10.895 20.0825 12.045 19.6775 13.2325 19.3C13.93 21.695 14.8475 24.19 15.9825 26.7475C14.9109 29.153 14.0046 31.6287 13.27 34.1575C12.1086 33.7979 10.9656 33.3816 9.845 32.91V32.91ZM16.425 50.385C14.7625 49.435 14.04 45.8 14.6025 41.13C14.7375 39.98 14.9575 38.7675 15.2275 37.5325C17.6225 38.12 20.24 38.5725 22.9925 38.8675C24.5504 41.0167 26.25 43.0596 28.08 44.9825C24.0925 48.6875 20.35 50.7175 17.805 50.7175C17.3249 50.7227 16.8508 50.6094 16.425 50.3875V50.385ZM45.435 41.0675C46.01 45.74 45.3 49.3725 43.6475 50.3375C43.2825 50.5575 42.805 50.655 42.2425 50.655C39.71 50.655 35.955 48.6375 31.9675 44.955C33.7898 43.0402 35.478 41.002 37.02 38.855C39.6404 38.5866 42.2391 38.1372 44.7975 37.51C45.08 38.745 45.2975 39.93 45.435 41.0675V41.0675ZM50.1425 32.91C49.0925 33.3625 47.9425 33.7675 46.755 34.145C46.0074 31.6033 45.0887 29.1151 44.005 26.6975C45.13 24.155 46.0325 21.6725 46.7175 19.2875C47.8826 19.6483 49.0297 20.0646 50.155 20.535C54.485 22.38 57.285 24.8025 57.285 26.7225C57.2725 28.6425 54.4725 31.0775 50.1425 32.91V32.91Z" fill="#FBFBFB"/>
<path d="M29.9875 32.3126C31.47 32.3126 32.8919 31.7236 33.9402 30.6753C34.9885 29.627 35.5775 28.2051 35.5775 26.7226C35.5775 25.24 34.9885 23.8182 33.9402 22.7698C32.8919 21.7215 31.47 21.1326 29.9875 21.1326C28.5049 21.1326 27.0831 21.7215 26.0347 22.7698C24.9864 23.8182 24.3975 25.24 24.3975 26.7226C24.3975 28.2051 24.9864 29.627 26.0347 30.6753C27.0831 31.7236 28.5049 32.3126 29.9875 32.3126V32.3126Z" fill="#FBFBFB"/>
</svg>
