<svg width="46" height="69" viewBox="0 0 46 69" fill="none" xmlns="http://www.w3.org/2000/svg">
<path fill-rule="evenodd" clip-rule="evenodd" d="M12.6932 0C5.65814 0 0.000182575 5.90233 0.000182575 13.1329C0.000182575 17.5287 2.09317 21.433 5.31027 23.8163C3.65221 25.0585 2.30824 26.672 1.38611 28.5272C0.46397 30.3825 -0.0106875 32.428 0.000182575 34.4997C0.000182575 38.8984 2.09317 42.7998 5.31027 45.1831C3.65221 46.4254 2.30824 48.0388 1.38611 49.894C0.46397 51.7493 -0.0106875 53.7948 0.000182575 55.8666C0.000182575 63.0971 5.65814 68.9995 12.6932 68.9995C19.7254 68.9995 25.3862 63.0971 25.3862 55.8666V44.7634C27.6095 46.6171 30.4121 47.6334 33.3068 47.6355C40.3419 47.6326 45.9998 41.7303 45.9998 34.4997C45.9998 30.101 43.9097 26.1997 40.6897 23.8163C42.3478 22.5741 43.6918 20.9607 44.6139 19.1054C45.536 17.2501 46.0107 15.2047 45.9998 13.1329C45.9998 5.90233 40.3419 0 33.3068 0H12.6932V0ZM4.76977 13.1329C4.76977 8.55881 8.34049 4.89609 12.6932 4.89609H20.6138V21.3697H12.6932C8.34049 21.3697 4.76977 17.7041 4.76977 13.1329V13.1329ZM33.3068 21.3668H25.3862V4.89321H33.3068C37.6624 4.89321 41.2302 8.55881 41.2302 13.1329C41.2302 17.7041 37.6624 21.3668 33.3068 21.3668ZM4.77264 34.4997C4.77264 29.9285 8.34337 26.2629 12.6961 26.2629H20.6166V42.7365H12.6932C8.33762 42.7365 4.76977 39.0709 4.76977 34.4997H4.77264ZM25.3862 34.4997C25.3862 29.9285 28.957 26.2629 33.3097 26.2629C37.6653 26.2629 41.2331 29.9256 41.2331 34.4997C41.2331 39.0709 37.6653 42.7365 33.3097 42.7365C28.957 42.7365 25.3891 39.0738 25.3891 34.4997H25.3862ZM4.77264 55.8666C4.77264 51.2953 8.34337 47.6326 12.6961 47.6326H20.6166V55.8666C20.6166 60.4406 17.0517 64.1034 12.6961 64.1034C8.34337 64.1034 4.77264 60.4406 4.77264 55.8666Z" fill="#FBFBFB"/>
</svg>
