<svg width="60" height="60" viewBox="0 0 60 60" fill="none" xmlns="http://www.w3.org/2000/svg">
<g clip-path="url(#clip0_308_191)">
<path d="M59.1112 13.575C59.13 13.6538 59.1412 13.7419 59.1412 13.8188V26.7C59.1417 26.8644 59.0985 27.026 59.0162 27.1683C58.9338 27.3106 58.8152 27.4285 58.6725 27.51L47.8612 33.7406V46.0744C47.8617 46.2388 47.8185 46.4003 47.7362 46.5426C47.6538 46.6849 47.5352 46.8028 47.3925 46.8844L24.825 59.8725C24.7723 59.9017 24.7163 59.9244 24.6581 59.94L24.6 59.97C24.443 60.0094 24.2788 60.0094 24.1219 59.97C24.0982 59.9629 24.0755 59.9529 24.0544 59.94C24.0002 59.9232 23.948 59.9006 23.8987 59.8725L1.34061 46.8844C1.19688 46.8032 1.07704 46.6856 0.993119 46.5434C0.909197 46.4012 0.864147 46.2395 0.862488 46.0744V7.43251C0.862488 7.35376 0.881238 7.26563 0.901863 7.18876C0.911238 7.15876 0.920613 7.14001 0.931863 7.11001L0.989988 6.96376C0.999363 6.93376 1.02936 6.91501 1.04811 6.88501L1.13624 6.76688C1.1678 6.7474 1.19733 6.72478 1.22436 6.69938C1.26374 6.66938 1.29186 6.64126 1.33124 6.62063L12.6112 0.125634C12.7539 0.0437168 12.9155 0.000610352 13.08 0.000610352C13.2445 0.000610352 13.4061 0.0437168 13.5487 0.125634L24.8381 6.62063C24.8775 6.63938 24.9056 6.66938 24.9356 6.69938L25.0331 6.76688C25.0619 6.80448 25.0882 6.84394 25.1119 6.88501C25.1306 6.90376 25.1606 6.93376 25.1794 6.96376L25.2375 7.11001C25.2469 7.14001 25.2675 7.15876 25.2675 7.18876C25.2959 7.2668 25.3092 7.3495 25.3069 7.43251V31.5638L34.7006 26.1544V13.8206C34.7041 13.7098 34.7276 13.6006 34.77 13.4981L34.8281 13.3519C34.8469 13.3125 34.8769 13.2938 34.8956 13.2638C34.9256 13.2244 34.9444 13.185 34.9744 13.1569C35.0044 13.1288 35.0419 13.1081 35.0719 13.0894C35.1 13.0582 35.1329 13.0316 35.1694 13.0106L46.4587 6.51563C46.5998 6.42909 46.762 6.38328 46.9275 6.38328C47.093 6.38328 47.2552 6.42909 47.3962 6.51563L58.6762 13.0106C58.7156 13.0294 58.7437 13.0594 58.7831 13.0894C58.8131 13.1081 58.8412 13.1288 58.8712 13.1569C58.9012 13.185 58.9294 13.2244 58.9594 13.2638C58.9781 13.2938 59.0081 13.3125 59.0175 13.3519C59.0475 13.4006 59.0569 13.4494 59.0756 13.4981C59.0944 13.5169 59.1056 13.5469 59.115 13.5769L59.1112 13.575ZM57.255 26.1525V15.45L53.31 17.715L47.8612 20.8594V31.5619L57.255 26.1525ZM45.9862 45.5269V34.8131L40.6144 37.8694L25.3012 46.62V57.4313L45.9862 45.5269ZM2.73374 9.06188V45.5269L23.4169 57.4313V46.62L12.6056 40.4963C12.5662 40.4775 12.5381 40.4475 12.5081 40.4175C12.4781 40.3988 12.4406 40.3781 12.42 40.35H12.4106C12.3806 40.32 12.3619 40.2825 12.3319 40.2525C12.3131 40.2225 12.2831 40.1944 12.2644 40.155C12.2425 40.1182 12.2261 40.0784 12.2156 40.0369C12.1969 39.9975 12.1762 39.9694 12.1669 39.93C12.1575 39.8906 12.1481 39.8419 12.1481 39.7931C12.1387 39.7538 12.1294 39.7256 12.1294 39.6863V14.4713L6.68061 11.3269L2.73374 9.06188ZM13.0762 2.02126L3.68249 7.43063L13.0762 12.84L22.47 7.43063L13.0762 2.02126ZM17.9681 35.7919L23.4169 32.6475V9.06376L19.4719 11.3288L14.0137 14.4731V38.0569L17.9681 35.7919ZM46.9237 8.40751L37.5187 13.8169L46.9237 19.2263L56.3175 13.8169L46.9237 8.40751ZM45.9862 20.8594L36.5812 15.45V26.1525L42.03 29.2969L45.9844 31.5619L45.9862 20.8594ZM24.3562 44.9906L45.03 33.1931L35.6456 27.7838L14.9812 39.6788L24.3562 44.9906Z" fill="#FBFBFB"/>
</g>
<defs>
<clipPath id="clip0_308_191">
<rect width="60" height="60" fill="white"/>
</clipPath>
</defs>
</svg>
