<svg width="60" height="60" viewBox="0 0 60 60" fill="none" xmlns="http://www.w3.org/2000/svg">
<g clip-path="url(#clip0_308_186)">
<path d="M29.785 0C14.55 0 15.5 6.64 15.5 6.64L15.5175 13.52H30.0525V15.585H9.75C9.75 15.585 0 14.4725 0 29.9225C0 45.3725 8.5075 44.8225 8.5075 44.8225H13.5825V37.655C13.5825 37.655 13.31 29.105 21.9575 29.105H36.3725C36.3725 29.105 44.4725 29.235 44.4725 21.235V8.005C44.4725 8.005 45.7 0 29.7825 0H29.785ZM21.77 4.625C23.215 4.625 24.385 5.8 24.385 7.255C24.385 8.7075 23.215 9.8825 21.77 9.8825C20.3225 9.8825 19.155 8.7075 19.155 7.255C19.155 5.8 20.3225 4.625 21.77 4.625Z" fill="#FBFBFB"/>
<path d="M30.2175 60C45.4475 60 44.4975 53.36 44.4975 53.36L44.48 46.48H29.945V44.415H50.2525C50.2525 44.415 60.0025 45.5275 60.0025 30.0775C60.0025 14.6275 51.4925 15.1775 51.4925 15.1775H46.4175V22.345C46.4175 22.345 46.69 30.895 38.0425 30.895H23.63C23.63 30.895 15.53 30.765 15.53 38.765V51.995C15.53 51.995 14.3 60 30.2175 60ZM38.2325 55.375C36.785 55.375 35.6175 54.2 35.6175 52.745C35.6175 51.2925 36.785 50.1175 38.2325 50.1175C39.6775 50.1175 40.8475 51.2925 40.8475 52.745C40.8475 54.2 39.6775 55.375 38.2325 55.375Z" fill="#FBFBFB"/>
</g>
<defs>
<clipPath id="clip0_308_186">
<rect width="60" height="60" fill="white"/>
</clipPath>
</defs>
</svg>
