<svg width="60" height="60" viewBox="0 0 60 60" fill="none" xmlns="http://www.w3.org/2000/svg">
<path d="M36.225 52.3425L49.6775 49.4275C49.6775 49.4275 44.825 16.5825 44.785 16.365C44.745 16.15 44.57 16.005 44.39 16.005C44.21 16.005 40.7925 15.7525 40.7925 15.7525C40.7925 15.7525 38.42 13.38 38.1325 13.1275C38.065 13.055 37.99 13.02 37.9175 12.9825L36.225 52.3425ZM37.34 12.9125C37.3 12.9125 37.2325 12.9475 37.1975 12.9475C37.1575 12.9475 36.655 13.095 35.865 13.3425C35.07 11.045 33.6675 8.9225 31.1875 8.9225H30.9725C30.25 8.02 29.39 7.625 28.6325 7.625C22.8425 7.625 20.0675 14.855 19.2075 18.5225C16.9775 19.21 15.3625 19.7125 15.175 19.785C13.915 20.18 13.8825 20.215 13.74 21.405C13.5975 22.265 10.3225 47.6275 10.3225 47.6275L35.615 52.375L37.34 12.9125V12.9125ZM30.7525 14.6725V14.9275C29.355 15.36 27.8075 15.8275 26.295 16.295C27.16 12.9875 28.775 11.365 30.1775 10.7525C30.5425 11.69 30.7525 12.9475 30.7525 14.6725V14.6725ZM28.4525 9.1725C28.7025 9.1725 28.955 9.2425 29.21 9.4275C27.38 10.2875 25.3625 12.4825 24.5325 16.8725C23.3612 17.2472 22.1853 17.6072 21.005 17.9525C21.9775 14.605 24.3175 9.1725 28.4525 9.1725V9.1725ZM29.4575 28.7025C29.4575 28.7025 27.9475 27.915 26.1525 27.915C23.4525 27.915 23.345 29.605 23.345 30.0375C23.345 32.34 29.39 33.2375 29.39 38.67C29.39 42.95 26.69 45.685 23.0225 45.685C18.6325 45.685 16.4025 42.95 16.4025 42.95L17.59 39.065C17.59 39.065 19.895 41.045 21.8325 41.045C22.0652 41.0544 22.2974 41.0168 22.5153 40.9344C22.7331 40.8521 22.9321 40.7266 23.1004 40.5656C23.2686 40.4046 23.4027 40.2113 23.4946 39.9972C23.5864 39.7832 23.6342 39.5529 23.635 39.32C23.635 36.2975 18.67 36.15 18.67 31.19C18.67 27.0175 21.6575 22.9525 27.7375 22.9525C30.0775 22.9525 31.225 23.6325 31.225 23.6325L29.4575 28.7025V28.7025ZM31.7625 10.5C33.0575 10.65 33.8875 12.12 34.4225 13.7775C33.7775 13.995 33.055 14.21 32.265 14.46V13.9925C32.265 12.59 32.085 11.4375 31.7625 10.5V10.5Z" fill="#FBFBFB"/>
</svg>
