<svg width="60" height="69" viewBox="0 0 60 69" fill="none" xmlns="http://www.w3.org/2000/svg">
<g clip-path="url(#clip0_357_2735)">
<path d="M60 20.905C60 20.3009 59.9893 19.6996 59.9733 19.0942C59.9572 17.774 59.8417 16.4569 59.6277 15.1541C59.4044 13.8497 58.9882 12.5859 58.3929 11.4041C57.1841 9.03053 55.2542 7.10111 52.8804 5.89291C51.6989 5.29677 50.4349 4.88057 49.1304 4.65808C47.8272 4.44296 46.5096 4.327 45.1889 4.31121C44.5849 4.29514 43.9835 4.28844 43.3782 4.28442H16.6259C16.0219 4.28442 15.4206 4.29514 14.8152 4.31121C14.4871 4.32058 14.1576 4.3313 13.8281 4.34737C12.8377 4.38715 11.8508 4.49093 10.8737 4.65808C9.90029 4.82794 8.94795 5.10184 8.03305 5.47505C7.72412 5.60451 7.4201 5.7438 7.121 5.89291C6.23831 6.34469 5.41168 6.89848 4.65805 7.54291C4.40626 7.75853 4.16385 7.98219 3.93082 8.21255C2.99277 9.14818 2.20854 10.2262 1.60715 11.4067C1.01154 12.5885 0.595363 13.8523 0.372332 15.1567C0.160312 16.4589 0.0465977 17.7751 0.0321533 19.0942C0.0147426 19.6983 0.00804618 20.2996 0.00402832 20.905V47.6679C0.00402832 48.2719 0.0147426 48.8733 0.0321533 49.4773C0.0481181 50.7975 0.163624 52.1146 0.377689 53.4175C0.600428 54.7219 1.01662 55.9859 1.61251 57.1675C2.82198 59.5391 4.74991 61.468 7.121 62.6786C8.3028 63.2737 9.56668 63.6895 10.871 63.9121C12.1742 64.1272 13.4918 64.2432 14.8125 64.259C15.4152 64.2751 16.0179 64.2818 16.6232 64.2858H43.3808C43.9849 64.2858 44.5862 64.2751 45.1916 64.259C46.5127 64.2424 47.8307 64.1265 49.1344 63.9121C50.4387 63.6893 51.7025 63.2736 52.8844 62.6786C55.2562 61.4683 57.1843 59.5388 58.3929 57.1661C58.9888 55.9845 59.405 54.7206 59.6277 53.4161C59.8429 52.1134 59.9588 50.7962 59.9746 49.4759C59.9907 48.8733 59.9974 48.2706 60.0014 47.6666V23.0545C60 22.338 60 21.6215 60 20.905V20.905ZM50.6411 53.1817C47.9625 47.9679 42.9764 49.2617 40.421 50.5742C40.1907 50.7081 39.9549 50.842 39.7179 50.9759L39.6616 51.0094C34.3715 53.8219 27.2692 54.0282 20.1281 50.9585C14.315 48.438 9.39962 44.2191 6.0268 38.8554C7.66774 40.0695 9.425 41.1179 11.2728 41.9853C18.821 45.521 26.4067 45.2652 31.7639 41.9853C24.1299 36.1126 17.7549 28.4585 12.8679 22.2684C11.9369 21.1822 11.0957 20.0221 10.3527 18.7996C16.2054 24.1567 25.4465 30.8826 28.7652 32.7442C21.7246 25.3126 15.521 16.1451 15.8116 16.4398C26.8996 27.6121 37.1304 33.9295 37.1304 33.9295C37.5161 34.1411 37.8 34.3112 38.0317 34.4652C38.246 33.9185 38.432 33.361 38.5889 32.7951C40.3594 26.3224 38.3665 18.9228 33.8599 12.813C44.1442 18.9844 50.2233 30.7152 47.7322 40.6367C47.6732 40.8684 47.6049 41.092 47.5393 41.3184C52.6983 47.6666 51.2947 54.4661 50.6371 53.1831L50.6411 53.1817Z" fill="#FBFBFB"/>
</g>
<defs>
<clipPath id="clip0_357_2735">
<rect width="60" height="68.5714" fill="white"/>
</clipPath>
</defs>
</svg>
