<svg width="60" height="60" viewBox="0 0 60 60" fill="none" xmlns="http://www.w3.org/2000/svg">
<g clip-path="url(#clip0_308_184)">
<path d="M60 30C60 46.5731 46.5731 60 30 60C13.4269 60 0 46.5731 0 30C0 13.4269 13.4269 0 30 0C46.5731 0 60 13.4269 60 30ZM43.1156 11.0944C40.0688 11.1994 37.4137 12.8794 35.43 15.2044C33.2325 17.7544 31.7775 20.7788 30.7219 23.8575C28.8469 22.3256 27.4013 20.3231 24.3844 19.4531C23.1932 19.0891 21.9321 19.0163 20.707 19.2407C19.4818 19.4652 18.3285 19.9804 17.3438 20.7431C16.3217 21.5422 15.5707 22.6369 15.1931 23.8781C14.295 26.8181 16.1513 29.4431 16.9913 30.3806L18.8362 32.3531C19.2094 32.7356 20.1356 33.75 19.6763 35.1956C19.1981 36.7781 17.3044 37.7925 15.3506 37.1981C14.4806 36.9338 13.23 36.2813 13.5131 35.37C13.6312 34.9894 13.8956 34.7175 14.04 34.395C14.1675 34.1194 14.235 33.9056 14.2744 33.7894C14.6269 32.6269 14.1469 31.1119 12.8962 30.7312C11.7337 30.3694 10.5544 30.6544 10.0837 32.1469C9.56625 33.8475 10.3762 36.9244 14.7337 38.2725C19.8412 39.8344 24.1463 37.0594 24.7613 33.4369C25.1438 31.1719 24.1163 29.4825 22.2413 27.3244L20.7094 25.6238C19.7813 24.7069 19.47 23.1244 20.4263 21.9131C21.2363 20.8856 22.3894 20.4581 24.2738 20.9663C27.0356 21.7181 28.2581 23.6212 30.3094 25.1644C29.46 27.9394 28.9013 30.7219 28.4044 33.2213L28.1025 35.0869C26.6381 42.7612 25.5244 46.9819 22.6144 49.4044C22.0275 49.815 21.1894 50.4394 19.9387 50.4863C19.2731 50.4956 19.0481 50.0494 19.0481 49.8431C19.0275 49.3838 19.4213 49.1681 19.6838 48.9638C20.0644 48.7594 20.6606 48.3956 20.6119 47.2744C20.5725 45.9469 19.47 44.7937 17.8763 44.8444C16.6856 44.8819 14.8688 46.005 14.9381 48.0562C15.0056 50.1844 16.9875 51.7762 19.965 51.6694C21.5681 51.6187 25.1231 50.9663 28.6275 46.7963C32.7094 42.0206 33.8531 36.5419 34.7119 32.5294L35.67 27.2437C36.2044 27.3037 36.7725 27.3431 37.3969 27.3619C42.4744 27.4688 45.015 24.8344 45.0525 22.92C45.0825 21.7575 44.2931 20.6156 43.1981 20.6456C42.7276 20.6575 42.2742 20.825 41.9088 21.1218C41.5435 21.4186 41.2868 21.8281 41.1787 22.2862C40.9444 23.3512 42.7988 24.3188 41.3531 25.2563C40.3275 25.9181 38.4825 26.3887 35.8931 26.0062L36.3637 23.3981C37.3312 18.4575 38.5106 12.3825 43.0144 12.2381C43.3462 12.2175 44.5462 12.2456 44.5669 13.0387C44.5762 13.3012 44.52 13.3819 44.2069 13.9762C43.915 14.3635 43.7666 14.8399 43.7869 15.3244C43.8244 16.5844 44.7825 17.415 46.1794 17.3644C48.0337 17.3062 48.5625 15.4894 48.5419 14.5612C48.465 12.3731 46.1588 11.0063 43.1119 11.0963L43.1156 11.0944Z" fill="#FBFBFB"/>
</g>
<defs>
<clipPath id="clip0_308_184">
<rect width="60" height="60" fill="white"/>
</clipPath>
</defs>
</svg>
