<svg width="70" height="48" viewBox="0 0 70 48" fill="none" xmlns="http://www.w3.org/2000/svg">
<path d="M47.8479 4.8123C47.5125 4.8123 47.285 4.85313 47.0488 4.90855V4.94647H47.0896C47.2471 5.2498 47.5154 5.47147 47.7137 5.74272C47.8712 6.0548 48.0054 6.36688 48.1629 6.67605L48.2038 6.6323C48.4779 6.4398 48.6121 6.13063 48.6121 5.66105C48.4954 5.52397 48.4779 5.38688 48.3788 5.25272C48.2621 5.0573 48.0113 4.96105 47.8538 4.80647L47.8479 4.8123ZM16.8292 43.2948H14.1254C14.0494 38.9979 13.7866 34.7064 13.3379 30.4323H13.3146L9.20208 43.2948H7.14583L3.0625 30.4323H3.03333C2.71394 34.7131 2.52427 39.0025 2.46458 43.2948H0C0.160417 37.5606 0.56 32.1823 1.19583 27.1656H4.55L8.44375 39.019H8.46708L12.3958 27.1656H15.5896C16.2954 33.0427 16.7096 38.424 16.8379 43.2948H16.8292ZM28.5454 31.3948C27.4429 37.3594 25.9904 41.6994 24.1938 44.4031C22.7879 46.4915 21.2479 47.5327 19.5767 47.5327C19.1304 47.5327 18.585 47.3986 17.9258 47.1302V45.6894C18.2467 45.739 18.6258 45.7652 19.0517 45.7652C19.8333 45.7652 20.4604 45.5465 20.9388 45.1177C21.5133 44.5927 21.7992 44.0036 21.7992 43.3531C21.7992 42.9011 21.5746 41.9823 21.1283 40.5998L18.1708 31.3948H20.825L22.9454 38.2781C23.4238 39.8415 23.625 40.9323 23.5433 41.5536C24.71 38.4502 25.5208 35.0581 25.9787 31.3948H28.5454ZM64.4933 43.2948H56.8225V27.1656H59.4038V41.3115H64.4933V43.2948ZM54.81 43.6886L51.8467 42.2302C52.1092 42.0086 52.3629 41.7694 52.5904 41.5011C53.8533 40.0252 54.4804 37.8319 54.4804 34.9298C54.4804 29.5923 52.3863 26.9206 48.195 26.9206C46.1417 26.9206 44.5375 27.5973 43.3825 28.9536C42.1283 30.4352 41.4983 32.6169 41.4983 35.5015C41.4983 38.3365 42.0525 40.419 43.1725 41.7431C44.1933 42.939 45.7304 43.5369 47.7896 43.5369C48.5596 43.5369 49.2654 43.4406 49.9042 43.2511L53.7687 45.5027L54.8188 43.6886H54.81ZM45.2083 40.066C44.5521 39.016 44.2254 37.3244 44.2254 35.0027C44.2254 30.9398 45.4621 28.9069 47.9296 28.9069C49.2217 28.9069 50.1754 29.394 50.7792 30.3652C51.4325 31.4211 51.7592 33.0952 51.7592 35.3906C51.7592 39.4856 50.5225 41.539 48.055 41.539C46.7571 41.539 45.8092 41.0519 45.2025 40.0806L45.2083 40.066ZM40.3725 38.8265C40.3725 40.1973 39.8708 41.3231 38.8675 42.1981C37.8642 43.0731 36.5254 43.5106 34.8308 43.5106C33.2471 43.5106 31.7275 43.009 30.2429 42.0086L30.9342 40.6202C32.2117 41.2619 33.3637 41.5769 34.405 41.5769C35.3733 41.5769 36.1346 41.364 36.6888 40.9352C36.9657 40.7264 37.1894 40.4551 37.3414 40.1433C37.4935 39.8316 37.5697 39.4883 37.5638 39.1415C37.5638 38.179 36.8929 37.3623 35.6738 36.6769C34.5421 36.0556 32.2817 34.7606 32.2817 34.7606C31.0508 33.8652 30.4383 32.9056 30.4383 31.3277C30.4383 30.0152 30.8963 28.9652 31.8092 28.1631C32.7279 27.3523 33.9092 26.9527 35.3675 26.9527C36.8608 26.9527 38.2258 27.3494 39.4508 28.1486L38.8296 29.5369C37.8508 29.1069 36.7953 28.8787 35.7262 28.8661C34.9008 28.8661 34.2621 29.0644 33.8188 29.4669C33.5938 29.6533 33.4124 29.8867 33.2874 30.1508C33.1625 30.4148 33.0969 30.7031 33.0954 30.9952C33.0954 31.9519 33.7779 32.7744 35.0379 33.4744C36.1842 34.1015 38.5 35.4286 38.5 35.4286C39.7629 36.3181 40.39 37.2661 40.39 38.8352L40.3725 38.8265ZM67.7367 21.7581C66.1763 21.7173 64.9658 21.8748 63.9538 22.3065C63.6621 22.4231 63.1954 22.4231 63.1546 22.7936C63.315 22.9481 63.3383 23.2019 63.4754 23.4177C63.7088 23.8086 64.1112 24.3306 64.4846 24.6048C64.8929 24.9256 65.3012 25.2348 65.73 25.509C66.4883 25.9756 67.3488 26.2527 68.0925 26.7223C68.5154 26.9965 68.9471 27.3436 69.3758 27.6352C69.5887 27.7811 69.7258 28.0436 70 28.1369V28.0786C69.8658 27.9036 69.825 27.6498 69.6938 27.4544C69.4983 27.259 69.3029 27.084 69.1104 26.8915C68.5378 26.1368 67.8544 25.4731 67.0833 24.9227C66.4592 24.4969 65.0942 23.9019 64.8375 23.1873L64.7996 23.1465C65.2254 23.1086 65.7329 22.954 66.1413 22.8373C66.8033 22.6623 67.41 22.7002 68.0954 22.5281C68.4046 22.4494 68.7167 22.3531 69.0288 22.254V22.079C68.6788 21.729 68.4163 21.2536 68.0546 20.9269C67.0451 20.0445 65.9685 19.2419 64.8346 18.5265C64.2221 18.1356 63.4463 17.8848 62.8017 17.5523C62.5683 17.4356 62.1775 17.3773 62.0433 17.1819C61.6933 16.7561 61.4892 16.1902 61.2413 15.6827C60.6685 14.5717 60.1364 13.4403 59.6458 12.2906C59.2958 11.5265 59.0829 10.7652 58.6542 10.0652C56.6417 6.74897 54.4629 4.73938 51.1117 2.77355C50.3913 2.36522 49.5279 2.19022 48.615 1.97438C48.1279 1.95105 47.6408 1.91605 47.1567 1.89563C46.8358 1.75855 46.5267 1.38813 46.2525 1.21022C45.1442 0.510217 42.2742 -1.00645 41.4575 1.00022C40.9325 2.26605 42.2363 3.51438 42.6883 4.15605C43.0238 4.6023 43.4467 5.11272 43.68 5.61438C43.8171 5.95272 43.855 6.2998 43.9921 6.65272C44.3013 7.51022 44.5958 8.46688 45.0042 9.26897C45.2171 9.6773 45.4504 10.1061 45.7246 10.4736C45.8821 10.6865 46.1504 10.7856 46.2117 11.1356C45.9375 11.5323 45.92 12.1098 45.7625 12.594C45.0625 14.8019 45.3367 17.5319 46.3283 19.1565C46.6404 19.6406 47.3842 20.714 48.3788 20.3027C49.2538 19.9527 49.0613 18.8444 49.3121 17.8673C49.3704 17.634 49.3325 17.4794 49.4521 17.3219V17.3656C49.7263 17.914 50.0004 18.4361 50.2513 18.9844C50.8521 19.9411 51.9021 20.9327 52.78 21.5948C53.2467 21.9448 53.6171 22.5515 54.2004 22.7673V22.709H54.1567C54.0313 22.5398 53.865 22.4581 53.7075 22.3211C53.3377 21.959 52.9964 21.569 52.6867 21.1544C51.8649 20.0315 51.1362 18.8434 50.5079 17.6019C50.1871 16.9894 49.9188 16.3302 49.6621 15.7265C49.5454 15.4931 49.5454 15.1431 49.35 15.0265C49.0583 15.4523 48.6296 15.8227 48.4167 16.3477C48.0463 17.1877 48.0083 18.2202 47.8683 19.2936C47.7896 19.314 47.8275 19.2936 47.7896 19.3344C47.1654 19.1827 46.9525 18.5352 46.7192 17.9927C46.1358 16.6073 46.0396 14.3819 46.5442 12.7865C46.6813 12.3781 47.2646 11.089 47.0313 10.6981C46.9088 10.3277 46.5238 10.1148 46.3108 9.81439C46.0369 9.42338 45.8025 9.00621 45.6108 8.56897C45.1442 7.47814 44.9108 6.27063 44.4033 5.1798C44.17 4.67522 43.7617 4.1473 43.4292 3.68355C43.0588 3.15855 42.6504 2.78813 42.3558 2.16688C42.2596 1.95397 42.1225 1.60105 42.2771 1.36772C42.3179 1.21022 42.3996 1.14897 42.5513 1.10522C42.8079 0.895218 43.5283 1.16938 43.7821 1.28605C44.5025 1.57772 45.1092 1.85188 45.7129 2.26022C45.9871 2.45272 46.2817 2.82314 46.6317 2.91939H47.04C47.6642 3.05647 48.3671 2.96022 48.9504 3.1323C49.9858 3.4648 50.9192 3.94897 51.7563 4.47397C54.3356 6.12163 56.4335 8.42183 57.8375 11.1415C58.0708 11.5906 58.1729 12.0019 58.3858 12.4686C58.7942 13.4311 59.2988 14.4023 59.7129 15.3327C60.1213 16.2515 60.515 17.1877 61.1012 17.949C61.3929 18.3573 62.5654 18.5702 63.0904 18.7831C63.4783 18.9581 64.0821 19.1186 64.4321 19.3315C65.1029 19.7398 65.7563 20.2065 66.3863 20.6556C66.7071 20.8773 67.6783 21.3644 67.7367 21.7581V21.7581Z" fill="#FBFBFB"/>
</svg>
