<svg width="70" height="53" viewBox="0 0 70 53" fill="none" xmlns="http://www.w3.org/2000/svg">
<path d="M33.0113 39.69C32.9784 39.7556 32.9456 39.8081 33.0113 39.69V39.69ZM60.2561 30.1753C58.0557 30.1753 55.8859 30.6784 53.9129 31.6517C53.2677 30.3503 52.6006 29.2129 52.4912 28.3599C52.36 27.3647 52.2178 26.7741 52.3709 25.593C52.524 24.4118 53.213 22.7385 53.2021 22.6182C53.1911 22.4979 53.049 21.8964 51.6382 21.8855C50.2274 21.8746 49.0134 22.1589 48.8713 22.5308C48.6216 23.2101 48.4278 23.9087 48.2916 24.6196C48.0401 25.8992 45.4722 30.4706 44.0177 32.8547C43.5365 31.9251 43.1318 31.1049 43.0443 30.4487C42.9131 29.4535 42.7709 28.8629 42.924 27.6818C43.0771 26.5007 43.7661 24.8274 43.7552 24.7071C43.7443 24.5868 43.6021 23.9853 42.1935 23.9744C40.7849 23.9634 39.5687 24.2478 39.4266 24.6196C39.2844 24.9914 39.1313 25.8664 38.8469 26.7085C38.5626 27.5506 35.1395 35.1623 34.2449 37.1418C33.7856 38.148 33.3918 38.9573 33.1075 39.5041C33.0637 39.5916 33.0309 39.6463 33.0091 39.69C33.0419 39.6353 33.0637 39.5806 33.0637 39.6025C32.8231 40.0728 32.681 40.3353 32.681 40.3353V40.3462C32.4951 40.6962 32.2873 41.0133 32.1888 41.0133C32.1232 41.0133 31.981 40.0947 32.2216 38.837C32.7357 36.1904 33.9496 32.0783 33.9387 31.9361C33.9277 31.8595 34.1683 31.1487 33.1403 30.7659C32.1451 30.405 31.7842 31.0065 31.6967 31.0065C31.6092 31.0065 31.5436 31.2252 31.5436 31.2252C31.5436 31.2252 32.6482 26.5882 29.4219 26.5882C27.4096 26.5882 24.6099 28.7973 23.2341 30.7987C22.3701 31.269 20.5 32.286 18.5314 33.3688L16.2676 34.6155C16.2129 34.5608 16.1692 34.5061 16.1145 34.4515C12.1992 30.2737 4.97245 27.3209 5.27867 21.7105C5.38803 19.6654 6.0989 14.2956 19.1767 7.77752C29.8944 2.44055 38.462 3.90603 39.9384 7.16508C42.0601 11.8131 35.356 20.4638 24.2271 21.7105C19.9838 22.1808 17.7549 20.5403 17.1972 19.9279C16.6176 19.2826 16.5301 19.2498 16.3113 19.3701C15.9504 19.567 16.1801 20.1357 16.3113 20.4747C16.6394 21.3387 18.0065 22.8698 20.3359 23.6353C22.381 24.3025 27.3549 24.6743 33.3678 22.3448C40.1243 19.742 45.3847 12.4911 43.8405 6.4214C42.27 0.253261 32.0423 -1.76998 22.3723 1.66406C16.6088 3.70917 10.3772 6.92448 5.89548 11.1131C0.569442 16.1001 -0.281411 20.4419 0.0685544 22.2573C1.31531 28.6989 10.1935 32.8985 13.7456 36.0044L13.2535 36.2778C11.4709 37.1637 4.70341 40.7071 3.00827 44.4473C1.09439 48.6907 3.32542 51.731 4.78871 52.1466C9.36014 53.4152 14.0387 51.1295 16.5541 47.3783C19.0695 43.6271 18.7633 38.7276 17.604 36.4966C17.5931 36.4638 17.5712 36.4419 17.5603 36.4091C18.8726 35.6318 20.196 34.8734 21.5302 34.1343C21.0927 35.3154 20.7756 36.7372 20.6115 38.7932C20.4147 41.1992 21.4099 44.3161 22.7004 45.541C23.2691 46.0769 23.9559 46.0878 24.3846 46.0878C25.8938 46.0878 26.5719 44.8411 27.3265 43.3537C28.2561 41.5383 29.0763 39.4275 29.0763 39.4275C29.0763 39.4275 28.0483 45.1363 30.859 45.1363C31.887 45.1363 32.915 43.813 33.3743 43.135V43.1459C33.3743 43.1459 33.3962 43.1022 33.4509 43.0147C33.5603 42.8506 33.6149 42.7522 33.6149 42.7522V42.7194C34.0305 42.0085 34.9382 40.379 36.3053 37.6886C38.077 34.2109 39.77 29.8691 39.77 29.8691C39.934 30.8228 40.1615 31.7655 40.448 32.6907C40.7542 33.7297 41.3995 34.867 41.9135 35.9716C41.4979 36.5403 41.2464 36.8684 41.2464 36.8684C41.2464 36.8772 41.2508 36.8837 41.2573 36.8903C40.9292 37.3277 40.5574 37.798 40.1746 38.2573C38.7769 39.9197 37.1124 41.8226 36.8937 42.3694C36.6312 43.0147 36.6968 43.4959 37.1999 43.8677C37.5717 44.1521 38.2279 44.1958 38.9169 44.1411C40.1746 44.0536 41.0605 43.7474 41.487 43.5506C42.2737 43.2687 43.0172 42.8785 43.6961 42.3913C45.0632 41.3852 45.8944 39.9415 45.8178 38.0386C45.7741 36.9887 45.435 35.9388 45.0194 34.9545C45.1397 34.7796 45.271 34.5936 45.3913 34.4077C46.8145 32.2842 48.0968 30.0695 49.23 27.7781C49.394 28.7317 49.6193 29.6744 49.908 30.5996C50.1705 31.4855 50.6845 32.4588 51.1548 33.4103C49.1206 35.0617 47.8629 36.9756 47.4276 38.2333C46.6184 40.5627 47.2527 41.6126 48.4447 41.8532C48.9806 41.9626 49.7462 41.7111 50.3149 41.4705C51.1592 41.1883 51.9553 40.7793 52.6749 40.2565C54.042 39.2504 55.3653 37.8396 55.2756 35.9257C55.2428 35.0617 55.0022 34.1977 54.6851 33.3666C56.4021 32.6448 58.6331 32.251 61.4766 32.5791C67.566 33.29 68.758 37.0959 68.5284 38.6817C68.2987 40.2674 67.0192 41.1533 66.5926 41.4158C66.1661 41.6782 66.0349 41.7767 66.0677 41.9735C66.1224 42.2579 66.3192 42.2469 66.6801 42.1813C67.1832 42.0938 69.8736 40.8908 69.9939 37.9489C70.1689 34.2305 66.5926 30.1403 60.2604 30.1731L60.2561 30.1753ZM13.3191 46.0003C11.3068 48.1985 8.48741 49.0297 7.27347 48.3298C5.97204 47.573 6.48605 44.338 8.96643 41.9954C10.4757 40.5737 12.4223 39.2613 13.7128 38.452C14.0081 38.277 14.4346 38.0145 14.9596 37.6974C15.0022 37.67 15.046 37.6445 15.0908 37.6208C15.1893 37.5552 15.2986 37.5005 15.408 37.4349C16.3135 40.7596 15.4408 43.6906 13.3191 45.9981V46.0003ZM28.0133 36.0044C27.3134 37.7215 25.8391 42.096 24.9402 41.8664C24.1746 41.6695 23.7044 38.3339 24.7871 35.053C25.3339 33.4016 26.4931 31.433 27.1821 30.6675C28.2867 29.4316 29.5007 29.0379 29.785 29.5301C30.1678 30.1753 28.4508 34.9327 28.0133 36.0044ZM40.1527 41.8007C39.8575 41.9538 39.584 42.0523 39.4528 41.9757C39.3544 41.921 39.5731 41.7132 39.5731 41.7132C39.5731 41.7132 41.0933 40.0837 41.6948 39.34C42.0447 38.9026 42.4494 38.3886 42.8868 37.8199C42.8868 37.8746 42.8978 37.9292 42.8978 37.9949C42.8847 39.9525 41.0036 41.2758 40.1506 41.8007H40.1527ZM49.5143 39.6681C49.2956 39.515 49.3284 39.001 50.0611 37.4043C50.3455 36.7809 51.0017 35.731 52.1391 34.7249C52.2681 35.1055 52.3381 35.5035 52.3468 35.906C52.3359 38.3667 50.5751 39.2854 49.5143 39.6681V39.6681Z" fill="#FBFBFB"/>
</svg>
