<svg width="60" height="45" viewBox="0 0 60 45" fill="none" xmlns="http://www.w3.org/2000/svg">
<path d="M49.3073 42.9637L49.3655 42.8456C49.4222 42.7537 49.4682 42.6556 49.5024 42.5531V42.5437C49.688 42.0562 49.7274 41.5386 49.6393 41.0192V41.038C49.5429 40.4881 49.3438 39.9614 49.0523 39.4853L49.0711 39.5041L35.7687 16.1133L33.7379 12.5673L18.444 39.5041C18.1796 39.9729 18.0146 40.481 17.9265 41.008V41.038C17.8196 41.6436 17.8871 42.2587 18.1309 42.825L18.1215 42.8062C18.1515 42.8944 18.2003 42.9731 18.249 43.0594L18.2396 43.05C18.6409 43.7344 19.4904 44.5539 21.3655 44.5539H46.1139C46.504 44.5539 48.4279 44.4751 49.3167 42.9619L49.3073 42.9637ZM33.7397 19.6705L45.8889 41.0398H21.5999L33.7397 19.6705ZM59.3657 39.5078L41.8254 8.607C41.6398 8.2751 40.6347 6.63433 38.8664 6.63433C38.0751 6.63433 36.9425 6.97561 36.0143 8.59763L33.7491 12.573L35.7612 16.1283L38.8871 10.5909L56.2417 41.053H49.6393C49.7274 41.5611 49.6786 42.0787 49.5024 42.5662V42.5475C49.463 42.6543 49.4236 42.7631 49.3655 42.8606V42.8512L49.3073 42.9694C48.4185 44.4826 46.504 44.5614 46.1327 44.5614H56.4555C56.8361 44.5614 58.7413 44.4826 59.6301 42.9694C60.0314 42.2756 60.3033 41.1242 59.3657 39.5116V39.5078ZM18.2603 43.0519L18.1421 42.8175V42.8081C17.8967 42.2464 17.8217 41.625 17.9265 41.0211V41.0398H3.74462L24.8215 3.9566L31.7352 16.1152L33.7472 12.5692L27.7111 1.94267C27.5442 1.64077 26.5297 0 24.7708 0C23.9795 0 22.8375 0.34128 21.9187 1.97267L0.569969 39.5059C0.384328 39.8285 -0.495124 41.5274 0.384328 43.0406C0.785613 43.7344 1.63506 44.5445 3.51023 44.5445H21.3824C19.526 44.5445 18.6578 43.7438 18.2565 43.0406L18.2603 43.0519Z" fill="#FBFBFB"/>
</svg>
