<svg width="80" height="49" viewBox="0 0 80 49" fill="none" xmlns="http://www.w3.org/2000/svg">
<path d="M66 14.0872C63.0002 13.054 60.3523 11.1964 58.36 8.7272C56.1642 5.97613 53.3682 3.76374 50.186 2.25929C47.0038 0.75484 43.5196 -0.00181929 40 0.0471985C35.2655 -0.2881 30.5783 1.17218 26.872 4.13723C23.1657 7.10228 20.7122 11.3545 20 16.0472C21.4027 13.7002 23.5138 11.8587 26.0296 10.7877C28.5453 9.71668 31.336 9.47142 34 10.0872C36.9948 11.1504 39.6383 13.0189 41.64 15.4872C43.8478 18.2163 46.6491 20.4058 49.8307 21.8892C53.0122 23.3725 56.4902 24.1106 60 24.0472C64.7345 24.3825 69.4217 22.9222 73.128 19.9572C76.8343 16.9921 79.2878 12.7399 80 8.0472C78.6228 10.4223 76.5184 12.2916 73.9975 13.3792C71.4766 14.4668 68.6728 14.715 66 14.0872ZM14 34.0072C16.9998 35.0404 19.6477 36.898 21.64 39.3672C23.8358 42.1183 26.6318 44.3306 29.814 45.8351C32.9962 47.3396 36.4804 48.0962 40 48.0472C44.7345 48.3825 49.4217 46.9222 53.128 43.9572C56.8343 40.9921 59.2878 36.7399 60 32.0472C58.5973 34.3942 56.4862 36.2357 53.9704 37.3067C51.4547 38.3777 48.664 38.623 46 38.0072C43.0052 36.944 40.3617 35.0755 38.36 32.6072C36.1462 29.8849 33.3438 27.7001 30.1636 26.2174C26.9835 24.7348 23.5084 23.9927 20 24.0472C15.2655 23.7119 10.5783 25.1722 6.87202 28.1372C3.16571 31.1023 0.712168 35.3545 0 40.0472C1.37723 37.6721 3.48163 35.8028 6.00253 34.7152C8.52344 33.6276 11.3272 33.3794 14 34.0072Z" fill="#FBFBFB"/>
</svg>
