<svg width="60" height="60" viewBox="0 0 60 60" fill="none" xmlns="http://www.w3.org/2000/svg">
<g clip-path="url(#clip0_308_177)">
<path d="M4.69982e-06 30V29.9575C4.69982e-06 25.55 0.962505 21.365 2.69 17.6075L2.615 17.7925L16.9325 56.9925C11.9342 54.5788 7.70456 50.8242 4.715 46.1475L4.6425 46.0275C1.59647 41.3286 -0.0165904 35.8449 4.69982e-06 30.245V29.9875V30ZM50.2475 28.4775C50.2475 29.0075 50.21 29.53 50.1425 30.04L50.15 29.98C50.0487 30.6729 49.9059 31.3592 49.7225 32.035L49.75 31.9125C49.555 32.6925 49.4058 33.2642 49.3025 33.6275C49.1992 33.9909 48.9742 34.7584 48.6275 35.93C48.2775 37.1 48.05 37.8542 47.945 38.1925L44.98 48.1775L34.135 15.955C35.335 15.8767 36.48 15.7725 37.57 15.6425C37.7892 15.6326 38.0009 15.56 38.1799 15.4332C38.359 15.3065 38.4978 15.1309 38.58 14.9275L38.5825 14.92C38.6732 14.7281 38.7118 14.5157 38.6942 14.3041C38.6766 14.0926 38.6036 13.8894 38.4825 13.715L38.485 13.72C38.3672 13.5359 38.1998 13.3888 38.0021 13.2955C37.8045 13.2022 37.5845 13.1665 37.3675 13.1925H37.3725L29.3725 13.5925C27.4225 13.5659 24.7958 13.4325 21.4925 13.1925C21.2092 13.1595 20.9237 13.2316 20.69 13.395L20.695 13.3925C20.4883 13.5321 20.3323 13.7346 20.25 13.97L20.2475 13.9775C20.1666 14.212 20.1468 14.4633 20.19 14.7075V14.6975C20.2303 14.9452 20.3538 15.1718 20.54 15.34C20.7488 15.5286 21.0165 15.639 21.2975 15.6525H21.3L24.42 15.965L29.1025 28.765L22.5475 48.4275L11.625 15.95C12.825 15.8717 13.97 15.7675 15.06 15.6375C15.2792 15.6276 15.4909 15.555 15.6699 15.4282C15.849 15.3015 15.9878 15.1259 16.07 14.9225L16.0725 14.915C16.1632 14.7231 16.2018 14.5107 16.1842 14.2991C16.1666 14.0876 16.0936 13.8844 15.9725 13.71L15.975 13.715C15.8572 13.5309 15.6898 13.3838 15.4922 13.2905C15.2945 13.1972 15.0745 13.1615 14.8575 13.1875H14.8625L6.8625 13.5875C6.67917 13.5875 6.38 13.5809 5.965 13.5675C5.55 13.5542 5.21167 13.5475 4.95 13.5475C7.62186 9.47025 11.244 6.10291 15.505 3.73503L15.6575 3.65753C20.0516 1.24946 24.9844 -0.00545752 29.995 0.0100293C33.9325 0.0100293 37.695 0.770029 41.14 2.14753L40.9375 2.07503C44.3763 3.43262 47.537 5.4095 50.2625 7.90753L50.24 7.88753H49.75C48.3575 7.88753 47.11 8.49753 46.255 9.46253L46.25 9.46753C45.365 10.4175 44.8225 11.6975 44.8225 13.1025V13.1775V13.1725C44.8225 13.5025 44.85 13.8275 44.905 14.1425L44.9 14.1075C44.9517 14.4192 45.0033 14.6984 45.055 14.945C45.1375 15.2875 45.245 15.5875 45.38 15.87L45.3675 15.8425C45.5242 16.1925 45.6417 16.4659 45.72 16.6625C45.8725 17.005 46.03 17.2925 46.205 17.5675L46.1875 17.54C46.4225 17.93 46.585 18.2034 46.675 18.36C46.765 18.5167 46.9533 18.8284 47.24 19.295L47.785 20.1925C49.2725 22.5425 50.18 25.39 50.24 28.445V28.4625L50.2475 28.4775ZM30.5075 32.615L39.7525 57.855C39.7825 58.02 39.8525 58.1675 39.9525 58.2875V58.285C36.7614 59.4266 33.3967 60.0068 30.0075 60H29.9375C27.0206 60.0032 24.1202 59.5641 21.335 58.6975L21.54 58.7525L30.5075 32.615ZM56.295 15.615C58.7402 19.9979 60.0161 24.9363 60 29.955V30.0175V30.015V30.2325C60 35.7 58.4925 40.815 55.8675 45.185L55.94 45.0525C53.3384 49.5062 49.6403 53.2199 45.1975 55.84L45.0575 55.9175L54.225 29.4525C55.5 26.28 56.3275 22.6075 56.5225 18.7675L56.525 18.685V18.5975C56.5257 17.5575 56.4421 16.5191 56.275 15.4925L56.29 15.6025L56.295 15.615Z" fill="#FBFBFB"/>
</g>
<defs>
<clipPath id="clip0_308_177">
<rect width="60" height="60" fill="white"/>
</clipPath>
</defs>
</svg>
